<?xml version="1.0" standalone="no"?>
<!DOCTYPE svg PUBLIC "-//W3C//DTD SVG 20010904//EN"
 "http://www.w3.org/TR/2001/REC-SVG-20010904/DTD/svg10.dtd">
<svg version="1.0" xmlns="http://www.w3.org/2000/svg"
 width="1024.000000pt" height="1024.000000pt" viewBox="0 0 1024.000000 1024.000000"
 preserveAspectRatio="xMidYMid meet">
<metadata>
Created by potrace 1.11, written by Peter Selinger 2001-2013
</metadata>
<g transform="translate(0.000000,1024.000000) scale(0.100000,-0.100000)"
fill="#000000" stroke="none">
<path d="M7320 8685 c-7 -8 -16 -12 -21 -9 -5 3 -9 0 -9 -5 0 -6 -7 -11 -15
-11 -8 0 -15 -4 -15 -10 0 -5 -6 -9 -12 -7 -7 1 -12 -4 -10 -10 1 -7 -1 -12
-5 -11 -15 4 -53 -13 -53 -23 0 -6 -4 -7 -10 -4 -5 3 -10 1 -10 -5 0 -6 -4 -9
-9 -6 -5 3 -14 -1 -21 -9 -7 -8 -18 -15 -26 -15 -7 0 -18 -8 -23 -17 -6 -10
-11 -14 -11 -9 0 6 -7 1 -16 -10 -8 -10 -12 -13 -9 -6 6 11 3 11 -13 1 -12 -7
-18 -18 -15 -24 4 -5 3 -7 -2 -3 -9 9 -65 -19 -83 -41 -11 -13 -12 -13 -7 -1
4 8 -1 6 -9 -4 -9 -11 -16 -14 -16 -8 0 7 -11 2 -24 -10 -13 -13 -21 -26 -19
-30 2 -4 -2 -5 -10 -2 -8 3 -50 -17 -95 -44 -65 -40 -78 -52 -69 -63 10 -11 9
-11 -6 0 -15 12 -20 11 -35 -1 -9 -9 -36 -25 -59 -37 -24 -12 -43 -27 -43 -33
0 -6 -3 -8 -7 -5 -6 6 -92 -38 -103 -53 -3 -4 -20 -13 -37 -21 -18 -8 -33 -18
-33 -22 0 -5 -4 -5 -10 -2 -5 3 -10 -2 -10 -11 0 -10 -3 -15 -6 -11 -9 8 -64
-21 -64 -34 0 -6 -5 -7 -10 -4 -6 3 -17 -1 -26 -9 -8 -9 -22 -16 -30 -16 -8 0
-14 -4 -14 -10 0 -5 -6 -10 -13 -10 -7 0 -22 -8 -33 -18 -10 -10 -23 -20 -29
-23 -5 -2 -9 -7 -8 -10 1 -4 -7 -4 -19 -1 -16 4 -19 2 -13 -8 6 -10 4 -12 -8
-7 -10 3 -17 2 -17 -3 0 -6 -6 -10 -13 -10 -7 0 -19 -9 -27 -19 -7 -11 -18
-17 -23 -14 -6 3 -16 -3 -24 -13 -8 -10 -17 -19 -21 -19 -4 0 -6 -3 -5 -7 2
-4 -6 -5 -17 -3 -11 2 -20 0 -20 -4 0 -5 -15 -15 -32 -22 -18 -7 -38 -20 -45
-29 -7 -8 -13 -11 -13 -6 0 6 -7 1 -16 -10 -8 -10 -12 -13 -8 -5 5 9 -2 8 -19
-5 -15 -10 -27 -23 -27 -27 0 -5 -4 -6 -9 -3 -5 4 -24 -6 -42 -21 -18 -16 -30
-22 -25 -16 4 7 -21 -6 -56 -30 -35 -23 -70 -43 -78 -45 -8 -2 -17 -7 -20 -11
-3 -4 -25 -18 -50 -32 -25 -13 -46 -27 -48 -31 -2 -5 -11 -8 -19 -8 -10 0 -13
-6 -9 -16 5 -14 4 -15 -7 -5 -11 9 -17 8 -27 -4 -7 -8 -18 -15 -26 -15 -7 0
-17 -7 -22 -16 -5 -9 -12 -16 -15 -16 -17 0 -47 -11 -47 -18 0 -4 -14 -13 -31
-20 -17 -7 -37 -20 -45 -27 -8 -8 -20 -16 -27 -17 -22 -3 -37 -17 -31 -28 4
-6 2 -8 -4 -5 -11 8 -93 -33 -87 -43 2 -3 -6 -7 -17 -7 -12 -1 -24 -6 -27 -11
-10 -16 -68 -42 -76 -34 -5 4 -5 1 -1 -5 4 -7 2 -13 -4 -13 -7 0 -9 -7 -6 -16
6 -14 4 -15 -10 -4 -13 12 -17 11 -25 -1 -5 -8 -9 -9 -9 -4 0 6 -3 5 -8 -1 -4
-6 -22 -19 -40 -28 -25 -13 -32 -22 -27 -34 5 -13 3 -14 -6 -5 -12 12 -37 3
-67 -24 -13 -12 -28 -17 -44 -14 -5 0 -8 -6 -8 -16 0 -9 -3 -14 -6 -10 -3 3
-24 -5 -45 -19 -21 -13 -39 -21 -39 -17 0 5 -4 4 -8 -2 -8 -12 -69 -55 -77
-55 -3 0 -23 -11 -45 -25 -22 -14 -40 -22 -40 -18 0 5 -5 0 -11 -10 -6 -9 -14
-15 -20 -12 -5 4 -9 1 -9 -4 0 -6 -7 -11 -15 -11 -8 0 -15 -4 -15 -9 0 -10
-39 -27 -52 -23 -5 1 -8 -6 -8 -16 0 -14 -2 -15 -10 -2 -9 13 -10 13 -11 0 -1
-8 -1 -19 0 -23 1 -5 -3 -6 -8 -3 -10 6 -63 -20 -112 -55 -14 -10 -29 -16 -33
-12 -3 3 -6 1 -6 -5 0 -7 -7 -12 -15 -12 -8 0 -15 -5 -15 -11 0 -5 -4 -8 -9
-5 -5 3 -14 -1 -21 -9 -7 -8 -16 -12 -21 -9 -8 5 -13 -9 -11 -27 1 -4 -8 -4
-20 -1 -17 4 -20 2 -14 -13 5 -14 4 -16 -7 -6 -11 9 -17 8 -27 -3 -6 -9 -21
-18 -32 -22 -11 -3 -29 -13 -39 -23 -11 -9 -23 -16 -27 -16 -4 0 -21 -10 -38
-22 -17 -12 -34 -20 -38 -16 -3 3 -6 1 -6 -6 0 -7 -4 -9 -10 -6 -5 3 -10 2
-10 -4 0 -5 -9 -13 -20 -16 -11 -4 -18 -10 -16 -14 7 -10 67 -8 85 3 8 6 12 5
8 0 -3 -6 73 -9 186 -9 106 0 195 -4 198 -8 3 -4 19 3 35 15 23 18 26 18 14 3
-14 -17 -13 -18 8 -13 12 4 22 3 22 -2 0 -4 16 -4 35 0 19 4 37 4 40 -1 8 -12
36 1 29 15 -3 6 1 3 9 -6 10 -13 16 -15 25 -6 9 9 12 9 12 0 0 -10 5 -10 20
-2 14 8 20 8 20 0 0 -8 6 -8 20 0 15 8 20 8 20 -1 0 -8 4 -8 15 1 11 9 15 9
15 1 0 -9 5 -9 20 -1 14 8 20 8 20 0 0 -8 6 -8 20 0 14 8 20 8 20 0 0 -8 6 -8
20 0 11 6 20 7 20 3 0 -10 47 -10 57 0 10 10 25 8 19 -2 -7 -10 13 -9 30 2 6
3 14 4 18 0 9 -9 57 -10 62 -1 3 5 14 4 24 -2 13 -7 21 -7 25 0 4 6 12 7 18 3
19 -12 277 -11 277 2 0 6 3 6 8 -1 4 -7 47 -11 120 -10 66 1 114 -3 116 -9 3
-7 5 -7 5 0 1 10 212 11 229 1 5 -3 12 -3 15 1 4 3 30 6 59 5 182 -5 277 -4
287 2 6 4 11 4 11 -1 0 -4 22 -8 50 -8 27 0 50 4 50 8 0 5 5 5 12 1 6 -4 66
-8 132 -9 98 -1 123 2 134 14 10 14 12 14 10 1 -2 -12 12 -15 74 -15 50 -1 74
3 70 10 -4 6 -1 6 9 -1 8 -6 58 -10 119 -9 58 0 113 -3 122 -7 9 -4 19 -4 22
1 6 10 31 9 41 -1 4 -3 21 -2 38 3 18 5 33 6 34 2 3 -9 91 -9 99 0 3 3 19 1
35 -3 16 -5 29 -5 29 -1 0 3 9 7 20 7 11 0 20 -3 20 -7 0 -7 44 -4 59 5 5 4
13 2 16 -4 5 -8 11 -8 19 -1 7 6 16 8 20 4 10 -10 56 -12 56 -3 0 5 15 4 34 0
22 -5 39 -3 45 3 7 7 11 7 11 1 0 -11 74 -9 92 2 6 4 9 3 6 -2 -4 -5 87 -9
218 -9 124 0 230 -2 237 -5 8 -3 12 -38 12 -111 1 -101 2 -108 29 -143 17 -23
34 -35 43 -32 8 3 11 1 8 -4 -7 -12 55 -52 72 -45 7 2 14 1 17 -3 2 -4 40 -7
83 -7 52 1 82 -3 91 -12 8 -8 9 -13 3 -13 -13 0 -10 -22 4 -32 6 -5 5 -8 -2
-8 -7 0 -13 -7 -13 -16 0 -9 5 -12 13 -8 9 6 9 4 1 -7 -16 -21 -17 -272 -1
-262 9 5 9 3 0 -8 -16 -20 -15 -188 1 -208 9 -12 8 -13 -4 -6 -19 12 -191 13
-207 2 -7 -5 -17 -6 -22 -3 -5 4 -14 -2 -20 -11 -6 -10 -11 -14 -11 -10 0 18
-80 -73 -80 -92 0 -11 -4 -22 -9 -26 -10 -6 -7 -37 5 -57 4 -7 3 -8 -5 -4 -8
6 -10 -1 -6 -25 7 -41 14 -51 27 -43 7 4 8 2 4 -5 -10 -16 33 -74 51 -67 8 3
12 2 9 -3 -7 -11 32 -31 69 -36 17 -2 32 -4 35 -5 3 -1 37 -3 75 -3 l70 -2 0
-212 c-1 -117 1 -213 3 -213 9 0 67 35 70 43 2 4 8 7 14 7 6 0 17 8 25 18 8 9
11 11 8 3 -8 -14 44 15 56 32 3 5 8 8 10 7 11 -4 38 13 33 21 -3 5 2 6 10 3 9
-3 16 -1 16 6 0 6 4 9 9 6 5 -4 11 -2 13 2 1 5 32 25 68 45 36 19 64 41 62 47
-1 6 2 9 8 5 9 -5 74 27 90 44 3 4 10 7 17 8 11 2 76 43 99 62 7 6 14 7 18 4
3 -3 8 1 12 10 3 9 19 19 35 22 16 4 29 11 29 16 0 5 7 9 15 9 8 0 15 4 15 8
0 4 14 13 31 19 18 7 28 17 24 23 -3 6 -3 10 2 9 22 -4 41 3 61 21 12 11 23
20 24 19 8 -5 48 14 48 22 0 5 5 9 12 9 6 0 26 11 43 25 18 13 35 22 37 19 3
-2 10 2 16 9 9 10 6 27 -9 68 -20 51 -27 150 -16 204 13 63 105 195 135 195 5
0 15 7 22 15 7 8 8 15 2 15 -5 0 -15 14 -22 30 -7 17 -15 30 -19 30 -4 0 -12
14 -18 31 -7 17 -16 28 -22 25 -5 -4 -13 -1 -17 5 -4 7 -3 9 4 5 6 -3 13 -2
16 3 3 5 -1 11 -9 15 -8 3 -15 12 -15 19 0 17 -45 67 -60 67 -6 0 -9 -4 -6 -9
7 -11 -22 -23 -35 -15 -5 3 -9 0 -9 -6 0 -6 -5 -8 -10 -5 -6 4 -16 2 -23 -3
-7 -5 -20 -8 -29 -7 -10 2 -18 -1 -18 -6 0 -6 -7 -6 -17 -2 -10 5 -30 8 -45 7
-16 0 -28 3 -28 8 0 5 -4 7 -10 3 -13 -8 -76 20 -117 51 -19 14 -41 23 -49 20
-10 -4 -12 -2 -8 6 4 6 -1 17 -11 25 -11 7 -15 13 -10 13 4 0 1 8 -8 18 -53
58 -79 208 -50 280 7 17 10 32 6 32 -4 0 -2 5 5 12 7 7 12 20 12 29 0 9 7 20
16 23 10 4 14 14 11 25 -3 14 -1 18 9 14 8 -3 14 1 14 11 0 9 4 15 8 14 4 -2
23 9 41 25 33 27 33 28 17 60 -17 32 -35 62 -49 81 -4 6 -22 35 -40 65 -18 30
-38 57 -46 59 -8 3 -11 0 -8 -5 3 -5 -2 -9 -11 -10 -37 -3 -57 -8 -63 -16 -4
-5 -32 -9 -62 -9 -38 -1 -54 -5 -50 -12 4 -7 1 -6 -8 1 -8 6 -26 13 -41 15
-14 2 -32 9 -40 16 -8 6 -18 9 -22 5 -4 -4 -10 -3 -14 3 -4 5 -23 21 -42 33
-43 29 -87 76 -95 102 -4 10 -10 19 -14 19 -4 0 -7 10 -8 22 -1 11 -7 24 -13
28 -14 8 -20 179 -7 187 4 3 6 11 3 18 -3 8 -2 15 2 17 4 2 17 24 30 49 20 43
86 112 115 122 7 2 3 21 -14 55 -15 32 -29 50 -37 47 -7 -3 -10 0 -7 5 6 9
-11 49 -25 60 -3 3 -14 22 -23 42 -9 20 -22 38 -28 40 -7 2 -32 -6 -57 -18
-25 -12 -54 -21 -64 -19 -10 2 -18 0 -18 -5 0 -9 -26 -8 -36 2 -3 4 -12 4 -19
2 -7 -3 -32 0 -56 6 -24 7 -53 14 -63 16 -11 2 -22 7 -25 11 -3 5 -25 21 -48
36 -23 16 -53 46 -67 67 -30 45 -67 145 -58 156 4 4 -2 4 -13 1 -17 -6 -18 -5
-5 5 10 9 15 31 15 68 0 30 7 69 15 85 8 17 15 35 16 42 1 6 11 22 23 34 11
12 23 31 27 41 3 10 10 18 15 18 23 0 66 43 62 61 -3 10 -10 16 -16 12 -6 -3
-7 -1 -3 6 4 6 -2 23 -13 37 -12 15 -21 31 -21 36 0 11 -52 92 -63 96 -4 2 -5
7 -2 12 3 4 -2 13 -10 20 -12 10 -16 9 -21 -3 -3 -9 -12 -13 -19 -11 -7 3 -24
0 -37 -7 -13 -7 -29 -12 -37 -10 -9 2 -12 -3 -7 -16 5 -15 4 -16 -6 -3 -7 8
-29 15 -48 15 -21 0 -38 -6 -42 -15 -5 -12 -7 -12 -7 3 -1 13 -7 16 -25 13
-14 -2 -26 0 -28 6 -2 6 -18 11 -35 11 -17 1 -29 5 -27 9 3 5 -6 12 -21 18
-14 5 -42 27 -62 49 -20 22 -40 38 -45 35 -4 -3 -5 1 -2 9 7 20 -22 29 -36 12z
m291 -522 c13 -16 12 -17 -3 -4 -10 7 -18 15 -18 17 0 8 8 3 21 -13z m-1127
-9 c3 -8 2 -12 -4 -9 -6 3 -10 10 -10 16 0 14 7 11 14 -7z m637 -1 c13 -16 12
-17 -3 -4 -10 7 -18 15 -18 17 0 8 8 3 21 -13z m-638 -148 c-3 -9 -8 -14 -10
-11 -3 3 -2 9 2 15 9 16 15 13 8 -4z m728 -82 c13 -16 12 -17 -3 -4 -10 7 -18
15 -18 17 0 8 8 3 21 -13z m159 13 c0 -2 -8 -10 -17 -17 -16 -13 -17 -12 -4 4
13 16 21 21 21 13z m161 -13 c13 -16 12 -17 -3 -4 -10 7 -18 15 -18 17 0 8 8
3 21 -13z m159 13 c0 -2 -8 -10 -17 -17 -16 -13 -17 -12 -4 4 13 16 21 21 21
13z m-1670 -250 c0 -2 -8 -10 -17 -17 -16 -13 -17 -12 -4 4 13 16 21 21 21 13z
m320 0 c0 -2 -8 -10 -17 -17 -16 -13 -17 -12 -4 4 13 16 21 21 21 13z m-332
-171 c-3 -3 -9 2 -12 12 -6 14 -5 15 5 6 7 -7 10 -15 7 -18z m640 0 c-3 -3 -9
2 -12 12 -6 14 -5 15 5 6 7 -7 10 -15 7 -18z m-713 -235 c3 -6 -1 -7 -9 -4
-18 7 -21 14 -7 14 6 0 13 -4 16 -10z m1906 -167 c13 -16 12 -17 -3 -4 -10 7
-18 15 -18 17 0 8 8 3 21 -13z m-3196 -72 c3 -5 2 -12 -3 -15 -5 -3 -9 1 -9 9
0 17 3 19 12 6z m3606 -158 c13 -16 12 -17 -3 -4 -10 7 -18 15 -18 17 0 8 8 3
21 -13z m-490 -10 c13 -16 12 -17 -3 -4 -10 7 -18 15 -18 17 0 8 8 3 21 -13z
m243 9 c3 -5 -1 -9 -9 -9 -8 0 -12 4 -9 9 3 4 7 8 9 8 2 0 6 -4 9 -8z m-3184
-76 c0 -2 -8 -10 -17 -17 -16 -13 -17 -12 -4 4 13 16 21 21 21 13z m141 -13
c13 -16 12 -17 -3 -4 -17 13 -22 21 -14 21 2 0 10 -8 17 -17z m-873 -78 c-3
-3 -9 2 -12 12 -6 14 -5 15 5 6 7 -7 10 -15 7 -18z m322 4 c0 -5 -4 -9 -8 -9
-5 0 -9 7 -9 15 0 8 4 12 9 9 4 -3 8 -9 8 -15z m631 -12 c-10 -9 -11 -8 -5 6
3 10 9 15 12 12 3 -3 0 -11 -7 -18z m2409 14 c0 -6 -4 -12 -8 -15 -5 -3 -9 1
-9 9 0 8 4 15 9 15 4 0 8 -4 8 -9z m401 -78 c13 -16 12 -17 -3 -4 -10 7 -18
15 -18 17 0 8 8 3 21 -13z m159 13 c0 -2 -8 -10 -17 -17 -16 -13 -17 -12 -4 4
13 16 21 21 21 13z m161 -13 c13 -16 12 -17 -3 -4 -10 7 -18 15 -18 17 0 8 8
3 21 -13z m-1841 -67 c0 -2 -8 -10 -17 -17 -16 -13 -17 -12 -4 4 13 16 21 21
21 13z m-2060 -36 c0 -5 -2 -10 -4 -10 -3 0 -8 5 -11 10 -3 6 -1 10 4 10 6 0
11 -4 11 -10z m4211 -387 c13 -16 12 -17 -3 -4 -10 7 -18 15 -18 17 0 8 8 3
21 -13z m179 13 c0 -2 -8 -10 -17 -17 -16 -13 -17 -12 -4 4 13 16 21 21 21 13z
m150 -2 c0 -8 -19 -13 -24 -6 -3 5 1 9 9 9 8 0 15 -2 15 -3z m-409 -251 c13
-16 12 -17 -3 -4 -10 7 -18 15 -18 17 0 8 8 3 21 -13z m9 -137 c0 -2 -8 -10
-17 -17 -16 -13 -17 -12 -4 4 13 16 21 21 21 13z m480 -320 c0 -2 -8 -10 -17
-17 -16 -13 -17 -12 -4 4 13 16 21 21 21 13z m-150 -10 c0 -2 -8 -10 -17 -17
-16 -13 -17 -12 -4 4 13 16 21 21 21 13z"/>
<path d="M1327 6414 c-3 -4 -45 -7 -93 -8 l-87 -1 -2 -35 c-2 -53 -24 -110
-62 -160 -37 -49 -114 -110 -138 -110 -8 0 -15 -4 -15 -8 0 -11 -17 -14 -100
-16 -38 0 -71 -3 -71 -6 -1 -3 -3 -67 -4 -143 -2 -95 1 -140 9 -142 6 -2 36
-6 66 -9 65 -6 73 -8 122 -30 33 -14 101 -73 135 -118 33 -43 67 -160 51 -176
-6 -6 -6 -12 0 -16 11 -7 -8 -100 -29 -137 -7 -13 -12 -27 -11 -31 1 -4 -22
-31 -50 -59 -73 -73 -145 -103 -250 -103 -45 0 -48 -2 -49 -25 0 -14 -1 -81
-2 -148 l-2 -122 55 1 c144 3 273 -93 320 -237 16 -49 16 -165 1 -194 -7 -12
-9 -26 -6 -31 3 -6 1 -10 -4 -10 -6 0 -11 -6 -11 -12 0 -17 -56 -99 -63 -92
-2 3 -15 -8 -27 -23 -12 -15 -23 -27 -23 -25 -1 2 -23 -6 -48 -17 -25 -12 -57
-23 -70 -25 -13 -3 -25 -5 -26 -6 -8 -5 -72 -3 -86 3 -13 5 -15 -13 -16 -144
-2 -167 -11 -150 77 -151 20 0 42 -3 47 -7 6 -3 12 -6 15 -6 29 -5 70 -18 70
-23 0 -4 18 -18 40 -32 84 -52 141 -174 135 -290 -8 -176 -147 -311 -325 -315
l-65 -1 -2 -147 c-1 -83 2 -149 8 -152 5 -4 9 -2 9 2 0 19 115 0 178 -28 95
-43 174 -151 190 -261 l7 -53 200 -2 c110 -1 491 -3 847 -5 357 -2 648 -5 648
-8 0 -3 267 -6 593 -7 1047 -3 1936 -11 1946 -17 5 -4 12 -2 16 4 4 6 11 8 16
5 8 -5 684 -12 1821 -18 191 -1 298 -6 298 -12 0 -6 3 -6 8 1 7 11 182 14 182
3 0 -11 51 3 55 15 2 6 7 28 10 49 7 54 50 143 83 174 33 31 120 86 141 89 76
12 98 17 108 25 7 7 11 54 10 147 l-2 137 -25 2 c-54 3 -87 12 -135 37 -50 27
-115 90 -133 130 -39 88 -43 103 -42 170 2 95 2 96 13 96 6 0 7 3 4 6 -3 4 -1
16 5 28 7 11 11 24 10 29 -5 17 127 135 164 147 21 7 43 15 49 18 5 3 28 8 50
10 22 2 42 6 44 8 6 6 9 254 3 276 -3 11 -11 15 -27 12 -49 -9 -187 58 -223
107 -7 10 -19 25 -27 33 -8 8 -15 17 -15 21 0 3 -10 27 -21 53 -20 44 -28 134
-16 182 16 65 30 101 49 126 36 48 82 93 96 94 6 0 12 4 12 8 0 12 111 47 149
47 l34 0 0 142 c1 79 -1 145 -4 147 -2 3 -26 7 -53 10 -166 20 -294 179 -282
350 12 172 145 307 316 319 l25 2 3 147 c2 136 1 147 -15 144 -36 -7 -127 25
-177 62 -58 42 -86 68 -86 80 0 4 -5 13 -12 20 -6 6 -13 17 -15 24 -1 7 -9 38
-18 68 -8 30 -15 62 -15 72 0 13 -8 18 -27 19 -26 1 -410 4 -1619 13 -287 2
-526 6 -531 9 -6 4 -13 4 -17 0 -3 -3 -63 -6 -133 -5 -71 1 -392 3 -715 6
-322 2 -591 6 -596 10 -5 3 -12 3 -16 -1 -3 -4 -32 -5 -64 -4 -32 1 -285 3
-563 5 -278 1 -510 6 -517 10 -7 4 -12 4 -12 -1 0 -9 -167 -9 -177 0 -3 4 -12
2 -18 -3 -9 -7 -21 -7 -39 0 -14 5 -26 6 -26 2 0 -5 -15 -7 -32 -5 -18 2 -326
5 -685 7 -358 2 -656 7 -661 10 -5 3 -12 3 -15 0z"/>
<path d="M3000 2388 c0 -5 -6 -8 -14 -8 -8 0 -16 -6 -19 -12 -4 -13 28 -81 51
-106 6 -7 12 -18 12 -23 0 -6 4 -8 9 -5 5 3 8 -2 7 -12 0 -9 5 -16 12 -14 8 1
11 -1 8 -6 -8 -14 17 -63 30 -58 7 3 10 -3 6 -16 -4 -17 -2 -19 14 -10 10 6
29 20 42 32 12 11 22 16 22 10 0 -7 6 -7 18 -1 33 18 80 29 113 27 21 -2 39 3
47 13 11 15 12 14 6 0 -4 -12 1 -16 20 -16 14 0 43 -10 65 -21 21 -11 41 -19
44 -16 6 6 117 -102 117 -115 0 -14 17 -14 25 -1 4 6 11 7 17 4 6 -4 8 -2 5 3
-6 9 5 16 36 21 4 1 17 11 29 21 11 11 25 18 30 15 4 -3 8 0 8 5 0 6 6 11 13
11 6 0 18 4 26 9 12 8 12 12 2 24 -8 11 -9 17 -1 22 6 4 9 1 8 -6 -5 -22 26
-21 50 1 12 11 22 18 22 14 0 -4 8 0 18 8 9 9 36 25 60 37 23 12 40 26 37 31
-4 6 1 7 11 3 13 -5 15 -3 9 7 -5 9 -4 11 4 6 6 -4 18 -2 26 4 8 7 15 9 15 4
0 -5 4 -4 8 2 4 7 27 23 52 37 25 14 44 30 43 36 -2 6 4 8 12 5 12 -5 45 16
45 29 0 4 -89 1 -100 -3 -3 -1 -9 -1 -15 0 -35 9 -252 6 -264 -4 -8 -6 -12 -6
-9 -1 4 7 -34 11 -113 12 -89 1 -117 -1 -112 -10 5 -8 2 -8 -9 0 -8 7 -34 12
-57 11 -22 -1 -44 2 -48 5 -3 4 -12 2 -20 -4 -10 -9 -13 -8 -13 0 0 7 -5 9
-11 6 -5 -4 -40 -6 -77 -6 -72 2 -82 2 -155 1 -27 0 -52 2 -57 5 -5 3 -11 1
-15 -5 -4 -6 -11 -8 -16 -4 -14 9 -129 10 -129 2z"/>
</g>
</svg>
